<svg width="431" height="229" viewBox="0 0 431 229" fill="none" xmlns="http://www.w3.org/2000/svg">
<path d="M4.99943 212.6C7.39943 211.4 10.3994 209.9 13.8994 208.2C15.5994 207.5 17.3994 206.7 19.1994 205.9C20.9994 205.1 22.7994 204.2 24.5994 203.2C23.9994 201.4 23.1994 199.5 22.3994 197.8C21.4994 196 20.6994 194.1 19.8994 192.2C19.0994 190.2 18.4994 188.1 17.9994 185.9C17.4994 183.7 17.3994 181.3 17.5994 178.7C17.7994 175.9 18.8994 172.9 20.6994 169.7C22.4994 166.6 24.6994 163.6 27.1994 160.8C29.3994 158.3 31.6994 156.2 33.9994 154.5C36.2994 152.8 38.3994 151.7 40.2994 151.2C41.3994 151 42.4994 151 43.4994 151.4C44.4994 151.8 45.3994 152.3 46.1994 152.9C47.5994 154.1 48.2994 155.5 48.4994 157C48.6994 158.5 47.8994 159.3 46.1994 159.6C44.4994 159.8 42.3994 160.8 40.0994 162.4C37.7994 164 35.4994 165.9 33.2994 168.1C31.0994 170.3 29.1994 172.7 27.5994 175.1C25.9994 177.6 25.0994 179.7 24.9994 181.6C24.7994 184.7 25.2994 187.7 26.6994 190.7C28.0994 193.7 29.3994 196.9 30.7994 200.2C31.7994 199.6 32.7994 199 33.7994 198.4C34.7994 197.8 35.8994 197.3 36.7994 196.6C39.4994 194.9 41.8994 193.2 43.8994 191.7C45.8994 190.2 47.7994 188.6 49.4994 187C51.5994 185.2 53.2994 183.2 54.7994 181.2C56.1994 179.2 57.5994 177.1 58.9994 175C59.4994 174.3 59.9994 173.9 60.6994 173.9C61.3994 173.9 61.8994 174.2 62.3994 174.8C62.9994 175.4 63.3994 176.2 63.5994 177.3C63.7994 178.3 63.5994 179.5 63.0994 180.9C61.8994 184.5 59.1994 188.2 55.1994 192C53.0994 194 50.8994 195.9 48.4994 197.7C46.0994 199.5 43.5994 201.3 40.9994 202.9C39.5994 203.8 38.2994 204.6 36.7994 205.3C35.3994 206 33.9994 206.8 32.5994 207.5C32.6994 208.6 32.7994 209.7 32.6994 210.9C32.5994 212.1 32.4994 213.3 32.1994 214.5C31.5994 217 30.5994 219.1 29.1994 220.8C27.7994 222.5 26.1994 223.9 24.3994 225C21.8994 226.5 19.1994 227.4 16.1994 227.8C13.1994 228.2 10.2994 228.1 7.59943 227.6C5.29943 227 3.39943 225.5 2.09943 223.2C1.49943 222.1 1.09943 220.9 0.799433 219.6C0.499433 218.3 0.599434 217.1 0.999434 216C1.29943 215 2.59943 213.8 4.99943 212.6ZM19.6994 213.4C17.8994 214.1 16.1994 214.9 14.5994 215.6C12.4994 216.6 10.7994 217.5 9.39944 218.3C7.99944 219.1 7.09943 219.9 6.59943 220.8L6.19943 221.4C7.19943 221.8 8.99943 221.8 11.5994 221.4C14.1994 221 16.5994 220.2 18.9994 218.8C20.5994 217.9 21.9994 216.9 23.0994 215.6C24.1994 214.3 24.8994 212.7 25.2994 210.9C23.3994 211.8 21.4994 212.6 19.6994 213.4Z" fill="#EF3FA9"/>
<path d="M68.6987 160.2C69.7987 160.4 70.7987 161.1 71.6987 162C72.5987 163 73.0987 164.1 73.4987 165.3C73.7987 166.5 73.5987 167.6 72.8987 168.6C71.4987 170.2 69.5987 173.2 66.9987 177.7C64.3987 182.2 61.8987 187 59.3987 192C57.9987 194.8 56.7987 197.6 55.7987 200.3C54.7987 203 53.9987 205.4 53.4987 207.5C52.9987 209.6 52.8987 211.3 52.9987 212.8C53.1987 214.2 53.7987 215 54.8987 215.1C55.5987 215.2 56.6987 214.8 57.8987 213.9C59.1987 213 60.5987 211.7 62.1987 210C63.7987 208.3 65.4987 206.4 67.3987 204.1C69.1987 201.8 71.1987 199.5 73.0987 197C75.3987 194 77.6987 191 79.9987 188C82.2987 184.9 84.3987 182.1 86.2987 179.4C88.1987 176.8 89.7987 174.4 91.1987 172.5C92.5987 170.5 93.4987 169.1 94.1987 168.3C94.8987 167.2 95.9987 166.8 97.1987 167C98.4987 167.2 99.6987 167.8 100.799 168.7C101.999 169.7 102.999 170.8 103.699 172C104.399 173.2 104.399 174.3 103.799 175.3C102.599 177 101.299 179.8 99.8987 183.6C98.4987 187.4 97.3987 191.3 96.3987 195.2C95.8987 197.4 95.4987 199.5 95.1987 201.6C94.8987 203.6 94.6987 205.4 94.6987 207C94.6987 208.6 94.8987 209.9 95.2987 211C95.6987 212 96.1987 212.7 96.9987 212.9C97.8987 213.1 99.0987 212.7 100.799 211.4C102.499 210.2 104.299 208.5 106.199 206.5C108.199 204.5 110.299 202.1 112.499 199.5C114.699 196.9 116.899 194.2 118.999 191.5C122.099 187.6 124.799 184 126.999 180.8C129.299 177.6 130.599 175.6 130.999 174.9C131.899 173.5 132.799 173.5 133.999 174.9C134.599 175.5 135.099 176.4 135.499 177.6C135.899 178.8 135.699 179.8 135.099 180.8C134.599 181.8 133.299 183.9 131.299 187.2C129.299 190.5 126.799 194.1 123.799 198.2C122.199 200.4 120.499 202.6 118.699 204.8C116.899 207 115.099 209.1 113.299 211C111.499 212.9 109.599 214.6 107.799 216C105.999 217.4 104.199 218.4 102.599 219C99.3987 220.4 96.3987 220.4 93.4987 219C90.5987 217.6 88.4987 215.2 87.2987 211.6C86.6987 209.9 86.3987 207.9 86.3987 205.7C86.3987 203.5 86.5987 201.3 86.9987 199.2C87.1987 197.6 87.5987 196.1 87.8987 194.8C88.2987 193.4 88.5987 192.2 88.7987 191.1C89.1987 189.9 89.4987 188.7 89.8987 187.6C88.8987 189.3 87.2987 191.9 84.8987 195.3C82.5987 198.7 79.9987 202.2 77.0987 205.7C74.2987 209.3 71.3987 212.6 68.3987 215.6C65.3987 218.6 62.6987 220.8 60.2987 222.2C58.1987 223.3 56.1987 223.5 54.1987 222.7C52.1987 221.9 50.5987 220.5 49.1987 218.5C47.7987 216.8 46.8987 214.7 46.2987 212.4C45.6987 210.1 45.5987 207.8 45.7987 205.6C46.1987 202.8 46.8987 199.8 47.8987 196.7C48.8987 193.6 50.0987 190.5 51.4987 187.5C53.9987 182.1 56.5987 177 59.3987 172.4C62.1987 167.7 64.3987 164.1 65.9987 161.5C66.7987 160.4 67.5987 160 68.6987 160.2Z" fill="#EF3FA9"/>
<path d="M157.1 160.299C160.2 161.999 162.6 164.499 164.3 167.999L167.4 163.899C168 162.999 168.7 162.599 169.5 162.599C170.3 162.599 171.1 162.899 171.8 163.499C173 164.399 174 165.599 174.7 167.099C175.4 168.599 175.4 169.899 174.8 170.899C173.1 173.399 171.1 176.899 169 181.399C166.8 185.999 165 190.499 163.4 195.099C161.8 199.799 160.8 203.899 160.4 207.499C160 211.099 160.8 213.099 162.6 213.599C163.5 213.799 164.5 213.599 165.8 212.799C167.1 211.999 168.5 210.899 170 209.399C171.5 207.899 173.2 206.199 175 204.299C176.8 202.399 178.5 200.299 180.3 198.099C182.3 195.799 184.2 193.399 186 190.899C187.8 188.399 189.5 186.099 191.1 183.999C192.6 181.799 193.9 179.999 194.9 178.399C195.9 176.799 196.6 175.699 196.9 175.099C197.5 173.999 198.2 173.599 198.9 173.899C199.6 174.199 200.3 174.899 200.7 175.799C201.1 176.499 201.3 177.399 201.3 178.399C201.3 179.399 201.2 180.199 200.8 180.999C199.9 182.699 198.3 185.499 195.9 189.199C193.5 192.999 190.8 196.799 187.9 200.699C185.8 203.499 183.7 206.099 181.7 208.499C179.7 210.899 177.8 212.799 176.1 214.299C172.5 217.499 168.9 219.399 165.3 220.099C161.7 220.799 158.4 219.499 155.6 216.299C153.1 213.499 152 209.499 152.3 204.499C152.5 199.299 153.9 194.399 156.4 189.599C154.7 192.099 152.6 194.799 150.1 197.799C147.6 200.799 145 203.799 142.3 206.799C139.5 209.799 136.7 212.599 133.9 215.199C131.1 217.799 128.4 219.999 126 221.799C123.9 223.299 122 223.899 120.4 223.699C118.7 223.499 117.3 222.799 116.1 221.599C114.5 219.999 113.3 217.999 112.6 215.499C111.9 212.999 111.8 210.799 112.4 208.899C113.4 205.299 115.1 200.999 117.5 195.899C119.9 190.799 122.7 185.699 125.9 180.499C127.6 177.799 129.4 175.199 131.3 172.699C133.2 170.199 135.1 167.999 137 166.099C138.9 164.199 140.8 162.599 142.8 161.299C144.8 159.999 146.7 159.199 148.5 158.799C151.2 158.099 154 158.599 157.1 160.299ZM122 215.099C123.4 214.199 125.1 212.799 127.1 210.899C129.1 208.999 131.3 206.699 133.7 204.099C136.2 201.499 138.7 198.599 141.5 195.499C144.7 191.799 147.9 187.999 151.2 184.199C154.5 180.299 157.5 176.599 160.3 172.999C159.3 171.499 158.2 169.999 156.9 168.499C155.6 166.999 154.4 166.099 153.3 165.999C151.9 165.899 150.5 166.299 149.1 167.299C147.6 168.299 146.1 169.599 144.4 171.299C142.7 172.999 141 174.899 139.3 177.099C137.6 179.299 135.9 181.699 134.3 184.099C132.1 187.499 130 191.099 127.9 194.799C125.9 198.499 124.1 201.799 122.7 204.899C121.3 207.899 120.2 210.499 119.6 212.599C118.9 214.699 118.8 215.899 119.1 216.099C119.6 216.299 120.6 215.999 122 215.099Z" fill="#EF3FA9"/>
<path d="M247.9 163.3C249.4 163.9 250.7 164.7 252 166C253.4 167.4 254.4 168.9 255.2 170.7C256 172.5 256.3 174.3 256 176.1C255.8 177.8 254.9 179.8 253.3 182.1C251.8 184.4 250.3 186 249 187C247.5 188 246.1 187.9 244.8 186.8C244.2 186.2 243.8 185.5 243.5 184.7C243.3 183.9 243.4 183 244.1 182C244.6 181.1 245.2 180.1 246 178.8C246.8 177.5 247.5 176.3 248.1 175.1C248.7 173.9 249.1 172.9 249.4 171.9C249.7 170.9 249.5 170.2 249 169.9C247.6 169 246 169 244.2 169.9C242.4 170.8 240.4 172.2 238.3 174.2C236.2 176.2 234.1 178.7 231.9 181.6C229.7 184.5 227.7 187.5 225.9 190.7C223.1 195.9 220.9 200.9 219.3 205.8C217.8 210.7 217.5 214.5 218.5 217.2C219.4 219.4 220.9 220.5 223.2 220.5C225.5 220.5 228.1 219.6 231.1 217.9C234.1 216.2 237.4 213.7 241.1 210.6C244.7 207.5 248.3 203.9 251.9 200C255.3 196.2 258.6 192.2 261.8 188C264.9 183.8 267.7 179.6 270.2 175.3C270.8 174.2 271.5 173.6 272.2 173.5C272.9 173.4 273.6 173.7 274.2 174.3C274.9 175 275.5 176 275.8 177.3C276.1 178.5 276 179.6 275.3 180.6C273.7 183.2 271.4 186.8 268.4 191.4C265.4 196 261.8 200.7 257.8 205.3C253.9 210 249.6 214.2 244.9 218C240.2 221.8 235.4 224.3 230.3 225.6C226.6 226.6 223.4 226.6 220.7 225.5C218 224.5 215.8 222.8 214.1 220.4C212.7 218.6 211.7 216.4 211.1 213.8C210.4 211.3 210.2 208.7 210.5 206C210.7 203.2 211.6 199.9 213.1 196.1C214.6 192.3 216.5 188.6 219 184.8C220.6 182.2 222.4 179.7 224.4 177.1C226.4 174.6 228.5 172.3 230.6 170.4C232.7 168.4 234.8 166.7 237.1 165.3C239.3 163.9 241.5 163 243.7 162.6C245 162.5 246.4 162.7 247.9 163.3Z" fill="#EF3FA9"/>
<path d="M297.199 160.299C300.299 161.999 302.699 164.499 304.399 167.999L307.499 163.899C308.099 162.999 308.799 162.599 309.599 162.599C310.399 162.599 311.199 162.899 311.899 163.499C313.099 164.399 314.099 165.599 314.799 167.099C315.499 168.599 315.499 169.899 314.899 170.899C313.199 173.399 311.199 176.899 309.099 181.399C306.899 185.999 305.099 190.499 303.499 195.099C301.899 199.799 300.899 203.899 300.499 207.499C300.099 211.099 300.899 213.099 302.699 213.599C303.599 213.799 304.599 213.599 305.899 212.799C307.199 211.999 308.599 210.899 310.099 209.399C311.599 207.899 313.299 206.199 315.099 204.299C316.899 202.399 318.599 200.299 320.399 198.099C322.399 195.799 324.299 193.399 326.099 190.899C327.899 188.399 329.599 186.099 331.199 183.999C332.699 181.799 333.999 179.999 334.999 178.399C335.999 176.799 336.699 175.699 336.999 175.099C337.599 173.999 338.299 173.599 338.999 173.899C339.699 174.199 340.399 174.899 340.799 175.799C341.199 176.499 341.399 177.399 341.399 178.399C341.499 179.399 341.299 180.199 340.899 180.999C339.999 182.699 338.399 185.499 335.999 189.199C333.599 192.999 330.899 196.799 327.999 200.699C325.899 203.499 323.799 206.099 321.799 208.499C319.799 210.899 317.899 212.799 316.199 214.299C312.599 217.499 308.999 219.399 305.399 220.099C301.799 220.799 298.499 219.499 295.699 216.299C293.199 213.499 292.099 209.499 292.399 204.499C292.599 199.299 293.999 194.399 296.499 189.599C294.799 192.099 292.699 194.799 290.199 197.799C287.699 200.799 285.099 203.799 282.399 206.799C279.599 209.799 276.799 212.599 273.999 215.199C271.199 217.799 268.499 219.999 266.099 221.799C263.999 223.299 262.099 223.899 260.499 223.699C258.799 223.499 257.399 222.799 256.199 221.599C254.599 219.999 253.399 217.999 252.699 215.499C251.999 212.999 251.899 210.799 252.499 208.899C253.499 205.299 255.199 200.999 257.599 195.899C259.999 190.799 262.799 185.699 265.999 180.499C267.699 177.799 269.499 175.199 271.399 172.699C273.299 170.199 275.199 167.999 277.099 166.099C278.999 164.199 280.899 162.599 282.899 161.299C284.899 159.999 286.799 159.199 288.599 158.799C291.299 158.099 294.099 158.599 297.199 160.299ZM261.999 215.099C263.399 214.199 265.099 212.799 267.099 210.899C269.099 208.999 271.299 206.699 273.699 204.099C276.199 201.499 278.699 198.599 281.499 195.499C284.699 191.799 287.899 187.999 291.199 184.199C294.499 180.299 297.499 176.599 300.299 172.999C299.299 171.499 298.199 169.999 296.899 168.499C295.599 166.999 294.399 166.099 293.299 165.999C291.899 165.899 290.499 166.299 289.099 167.299C287.699 168.299 286.099 169.599 284.399 171.299C282.699 172.999 280.999 174.899 279.299 177.099C277.599 179.299 275.899 181.699 274.299 184.099C272.099 187.499 269.999 191.099 267.899 194.799C265.899 198.499 264.099 201.799 262.699 204.899C261.299 207.899 260.199 210.499 259.599 212.599C258.899 214.699 258.799 215.899 259.099 216.099C259.699 216.299 260.599 215.999 261.999 215.099Z" fill="#EF3FA9"/>
<path d="M323.699 212.6C326.099 211.4 329.099 209.9 332.599 208.2C334.299 207.5 336.099 206.7 337.899 205.9C339.699 205.1 341.499 204.2 343.299 203.2C342.699 201.4 341.899 199.5 341.099 197.8C340.199 196 339.399 194.1 338.599 192.2C337.799 190.2 337.199 188.1 336.699 185.9C336.199 183.7 336.099 181.3 336.299 178.7C336.499 175.9 337.599 172.9 339.399 169.7C341.199 166.6 343.399 163.6 345.899 160.8C348.099 158.3 350.399 156.2 352.699 154.5C354.999 152.8 357.099 151.7 358.999 151.2C360.099 151 361.199 151 362.199 151.4C363.199 151.8 364.099 152.3 364.899 152.9C366.299 154.1 366.999 155.5 367.199 157C367.399 158.5 366.599 159.3 364.899 159.6C363.199 159.8 361.099 160.8 358.799 162.4C356.499 164 354.199 165.9 351.999 168.1C349.799 170.3 347.899 172.7 346.299 175.1C344.699 177.6 343.799 179.7 343.699 181.6C343.499 184.7 343.999 187.7 345.399 190.7C346.799 193.7 348.099 196.9 349.499 200.2C350.499 199.6 351.499 199 352.499 198.4C353.499 197.8 354.599 197.3 355.499 196.6C358.199 194.9 360.599 193.2 362.599 191.7C364.599 190.2 366.499 188.6 368.199 187C370.299 185.2 371.999 183.2 373.499 181.2C374.899 179.2 376.299 177.1 377.699 175C378.199 174.3 378.699 173.9 379.399 173.9C380.099 173.9 380.599 174.2 381.099 174.8C381.699 175.4 382.099 176.2 382.299 177.3C382.499 178.3 382.299 179.5 381.799 180.9C380.599 184.5 377.899 188.2 373.899 192C371.799 194 369.599 195.9 367.199 197.7C364.799 199.5 362.299 201.3 359.699 202.9C358.299 203.8 356.999 204.6 355.499 205.3C354.099 206 352.699 206.8 351.299 207.5C351.399 208.6 351.499 209.7 351.399 210.9C351.299 212.1 351.199 213.3 350.899 214.5C350.299 217 349.299 219.1 347.899 220.8C346.499 222.5 344.899 223.9 343.099 225C340.599 226.5 337.899 227.4 334.899 227.8C331.899 228.2 328.999 228.1 326.299 227.6C323.999 227 322.099 225.5 320.799 223.2C320.199 222.1 319.799 220.9 319.499 219.6C319.299 218.3 319.299 217.1 319.699 216C319.899 215 321.299 213.8 323.699 212.6ZM338.399 213.4C336.599 214.1 334.899 214.9 333.299 215.6C331.199 216.6 329.499 217.5 328.099 218.3C326.699 219.1 325.799 219.9 325.299 220.8L324.899 221.4C325.899 221.8 327.699 221.8 330.299 221.4C332.899 221 335.299 220.2 337.699 218.8C339.299 217.9 340.699 216.9 341.799 215.6C342.899 214.3 343.599 212.7 343.999 210.9C342.099 211.8 340.199 212.6 338.399 213.4Z" fill="#EF3FA9"/>
<path d="M402.699 181.2C399.599 185 396.099 188.6 392.199 192.2C388.499 195.5 384.799 198.6 381.099 201.3C377.399 204.1 374.299 206.1 371.899 207.5C371.799 210.7 372.199 213.3 373.299 215.3C374.399 217.3 375.899 218.4 377.999 218.5C379.999 218.6 382.199 218.2 384.599 217.1C387.099 216.1 389.599 214.6 392.199 212.8C394.799 211 397.399 208.8 400.099 206.4C402.799 204 405.399 201.4 407.899 198.7C412.099 194.1 415.799 189.7 419.099 185.3C422.399 180.9 424.699 177.5 425.999 174.9C426.599 173.8 427.299 173.3 427.999 173.4C428.699 173.5 429.399 174 429.799 174.9C430.699 176.5 430.799 178 430.399 179.5C429.199 182.7 426.999 186.8 423.799 191.8C420.599 196.8 416.799 201.7 412.399 206.5C407.999 211.4 403.199 215.7 397.999 219.3C392.799 222.9 387.799 224.9 382.899 225.3C376.899 225.7 371.999 223.5 368.299 218.8C365.599 215.4 364.099 210.8 363.799 205.2C363.499 199.6 364.899 193.4 368.099 186.5C371.999 178 376.299 171.7 380.699 167.6C385.199 163.5 389.599 160.9 393.899 159.8C396.499 159.2 398.799 159.1 400.799 159.5C402.799 159.9 404.499 160.8 405.899 162.2C408.199 164.5 408.999 167.5 408.299 171.1C407.699 174.1 405.799 177.4 402.699 181.2ZM374.799 194.7C374.399 195.8 373.999 196.9 373.799 198C376.499 196 379.499 193.6 382.699 190.7C385.899 187.8 388.899 184.8 391.699 181.7C394.799 178.4 397.299 175.3 399.199 172.4C401.099 169.5 401.799 167.5 401.099 166.4C400.499 165.2 398.899 165.4 396.499 167C393.999 168.6 391.299 170.9 388.399 174C386.199 176.5 383.999 179.2 381.799 182.1C379.599 185.1 377.799 188.1 376.399 191.1C375.699 192.4 375.199 193.6 374.799 194.7Z" fill="#EF3FA9"/>
<path d="M57.7 138.9C52 137.6 46.6 135.7 41.5 133.2C36.4 130.7 31.8 127.5 27.5 123.7C23.3 119.9 19.6 115.5 16.6 110.6C13.6 105.7 11.2 100.2 9.5 93.8997C7.8 87.5997 7 80.8996 7 73.7996C7 67.5996 7.7 61.4996 9.1 55.7996C10.5 49.9996 12.5 44.5996 15 39.5996C17.6 34.5996 20.9 29.9997 24.8 25.8997C28.8 21.7997 33.2 18.2996 38.2 15.2996C43.2 12.3996 48.8 10.0996 55.1 8.49963C61.4 6.89963 68.2 6.09961 75.3 6.09961C84.9 6.09961 94.4 8.19966 103.9 12.3997C113.4 16.5997 121.7 22.8997 128.7 31.3997L103 53.3997C101.5 51.6997 99.8 50.0996 98 48.6996C96.2 47.1996 94.1 45.7997 91.7 44.3997C89.4 42.9997 86.8 41.8996 83.9 41.0996C81 40.2996 78.1 39.8997 75.2 39.8997C72 39.8997 68.8 40.3996 65.7 41.2996C62.6 42.1996 59.8 43.5996 57.1 45.4996C54.4 47.3996 52.1 49.6996 50.1 52.2996C48.1 54.9996 46.6 58.1997 45.4 61.8997C44.3 65.5997 43.7 69.5997 43.7 73.8997C43.7 78.2997 44.4 82.5996 45.9 86.5996C47.4 90.5996 49.4 94.1996 52 97.1996C54.6 100.2 58 102.7 62 104.5C66 106.3 70.4 107.2 75.2 107.2C80.3 107.2 85.4 106 90.5 103.5C95.6 101 99.7 97.7997 103 93.8997L128.7 116C122.6 123.4 115 129.5 105.7 134.1C96.4 138.7 86.3 141 75.2 141C69.3 140.9 63.4 140.3 57.7 138.9Z" fill="#EF3FA9"/>
<path d="M208.4 138.999L183.7 98.9994H175.6V138.999H141.5V7.89941H194C202 7.89941 209.2 9.09941 215.3 11.3994C221.5 13.6994 226.4 16.9994 230.3 21.1994C234.1 25.3994 237 30.2994 238.9 35.8994C240.8 41.4994 241.8 47.6994 241.8 54.5994C241.8 59.2994 241.3 63.6994 240.3 67.7994C239.3 71.8994 237.9 75.4994 235.9 78.6994C234 81.8994 231.7 84.7994 229 87.2994C226.3 89.7994 223.2 91.7994 219.6 93.4994L219.5 93.7994L249.1 139.099H208.4V138.999ZM175.6 68.6994H186.2C192 68.6994 196.6 67.3994 200.1 64.7994C203.6 62.1994 205.4 58.4994 205.4 53.6994C205.4 49.3994 203.7 45.8994 200.4 42.9994C197.1 40.0994 192.3 38.6994 186.2 38.6994H175.6V68.6994V68.6994Z" fill="#EF3FA9"/>
<path d="M260.5 7.89941H296.1V138.999H260.5V7.89941Z" fill="#EF3FA9"/>
<path d="M316.2 7.89941H403.3V39.1994H350.1V58.8994H391.7V89.3994H350.1V107.899H407.1V138.999H316.1V7.89941H316.2Z" fill="#EF3FA9"/>
<path d="M51.7 132.9C46 131.6 40.6 129.7 35.5 127.2C30.4 124.7 25.8 121.5 21.5 117.7C17.3 113.9 13.6 109.5 10.6 104.6C7.6 99.6996 5.2 94.1997 3.5 87.8997C1.8 81.5997 1 74.8996 1 67.7996C1 61.5996 1.7 55.4996 3.1 49.7996C4.5 44.0996 6.5 38.5996 9 33.5996C11.6 28.5996 14.9 23.9997 18.8 19.8997C22.8 15.7997 27.2 12.2996 32.2 9.29962C37.2 6.39962 42.8 4.09963 49.1 2.49963C55.4 0.899634 62.2 0.0996094 69.3 0.0996094C78.9 0.0996094 88.4 2.19966 97.9 6.39966C107.4 10.5997 115.7 16.8997 122.7 25.3997L97 47.3997C95.5 45.6997 93.8 44.0996 92 42.6996C90.2 41.1996 88.1 39.7997 85.7 38.3997C83.3 36.9997 80.8 35.8996 77.9 35.0996C75 34.2996 72.1 33.8997 69.2 33.8997C66 33.8997 62.8 34.3996 59.7 35.2996C56.6 36.1996 53.8 37.5996 51.1 39.4996C48.4 41.3996 46.1 43.6996 44.1 46.2996C42.1 48.9996 40.6 52.1997 39.4 55.8997C38.3 59.5997 37.7 63.5997 37.7 67.8997C37.7 72.2997 38.4 76.5996 39.9 80.5996C41.4 84.5996 43.4 88.1996 46 91.1996C48.6 94.2996 52 96.6996 56 98.4996C60 100.3 64.4 101.2 69.2 101.2C74.3 101.2 79.4 99.9996 84.5 97.4996C89.6 94.9996 93.7 91.7997 97 87.8997L122.7 110C116.6 117.4 109 123.5 99.7 128.1C90.4 132.7 80.3 135 69.2 135C63.3 134.9 57.4 134.2 51.7 132.9Z" fill="#94D6DA"/>
<path d="M202.3 132.999L177.6 92.9994H169.5V132.999H135.5V1.89941H188C196 1.89941 203.2 3.09941 209.3 5.39941C215.5 7.69941 220.4 10.9994 224.3 15.1994C228.1 19.3994 231 24.2994 232.9 29.8994C234.8 35.4994 235.8 41.6994 235.8 48.5994C235.8 53.2994 235.3 57.6994 234.3 61.7994C233.3 65.8994 231.9 69.4994 229.9 72.6994C227.9 75.8994 225.7 78.7994 223 81.2994C220.3 83.7994 217.2 85.7994 213.6 87.4994L213.5 87.7994L243.1 133.099H202.3V132.999ZM169.5 62.5994H180.1C185.9 62.5994 190.5 61.2994 194 58.6994C197.5 56.0994 199.3 52.3994 199.3 47.5994C199.3 43.2994 197.6 39.7994 194.3 36.8994C191 33.9994 186.2 32.5994 180.1 32.5994H169.5V62.5994V62.5994Z" fill="#94D6DA"/>
<path d="M254.5 1.89941H290.1V132.999H254.5V1.89941Z" fill="#94D6DA"/>
<path d="M310.2 1.89941H397.3V33.1994H344.1V52.8994H385.7V83.3994H344.1V101.899H401.1V132.999H310.1V1.89941H310.2Z" fill="#94D6DA"/>
</svg>
